<svg height="500" viewBox="0 0 302.312 500" width="302.312" xmlns="http://www.w3.org/2000/svg"><g fill-rule="evenodd" transform="translate(-99.344)"><path d="m270 397a6.991 6.991 0 0 1 7 7c0 2.635-.024 6.022-.024 10.036 52.958.028 99.752.051 103.073.051-19.271-62.666-44.468-144.6-44.468-144.6a8.77 8.77 0 0 0 -8.86-8.677s-66.821 70.09-76.7 70.09-76.921-70.09-76.921-70.09a8.77 8.77 0 0 0 -8.86 8.677l-43.572 144.471c2.7 0 50.3.015 103.332.042v-10c0-5.039 2.117-7 7-7zm-154.776 35-15.894 52.7c0 8.667 5.878 15.3 14.545 15.3h272.075a15.692 15.692 0 0 0 15.692-15.693l-16.068-52.25c-3.555 0-52.962-.013-108.6-.02 0 1.938.045 8.272.045 11.051-.001 4.941-2.019 6.912-7.019 6.912-15.671.007-37.574 0-39 0-4.936 0-7-2.062-7-7 0-2.423-.057-8.711-.057-10.975z"/><path d="m342.04 260.821 31.385 103.57s19.78 72.651 26.154 3.139c4.726-51.549-36.592-104.584-57.539-106.709z"/><path d="m157.85 260.821-31.385 103.57s-19.78 72.651-26.154 3.139c-4.727-51.549 36.589-104.584 57.539-106.709z"/><path d="m337 129c3.016 2.014 8.223 6.08 9.977 10.127a105.309 105.309 0 0 1 8.663 41.973c0 27.432-21.531 65-27.595 71.2s-69.817 72.176-77.574 72.176-70.978-64.284-78.579-72.195-27.577-43.763-27.577-71.186a105.3 105.3 0 0 1 8.666-41.973c1.52-3.509 6.827-8.106 9.036-10.182-4.76 4.376-7.371 22.948-7.276 34.619 0 55.806 39.563 28.865 87.269 41.515 2.633.7-2.427 6.644-2.427 12.674a10.918 10.918 0 0 0 21.835 0c0-6.03-5.384-12.073-2.42-12.785 49.225-11.82 86.216 15.469 86.216-41.4 0-11.821-2.238-30.163-8.214-34.563z"/><path d="m363.642 129.609c13.933 0 6.128-16.064 0-22.192l-102.825-102.825a15.692 15.692 0 0 0 -22.192 0l-102.825 102.825c-6.129 6.128-11.874 26.824 0 22.192 83.226-32.468 141.316-32.295 227.842 0z"/></g></svg>