<svg height="500" viewBox="0 0 477.937 500" width="477.937" xmlns="http://www.w3.org/2000/svg"><g transform="translate(-11.344)"><path d="m249.988 502c-104.061 0-196.052-22.985-220.188-18.346-18.488 3.554-23.674-5.982-12.889-23.685 8.841-14.514 42.444-12.92 16.381-12.92-2.377-97.161-6.175-209.716 4.169-271.859-3.1 18.765 164.4 31.246 212.524 31.246s215.679-12.646 212.527-31.246c10.344 62.143 6.546 172.625 4.169 269.786-23.439.021 5.078-.429 16.38 14.993 12.254 16.72 5.6 27.239-12.889 23.685-24.132-4.639-116.124 18.346-220.184 18.346zm0-261.048a108.711 108.711 0 1 1 -108.711 108.711 108.712 108.712 0 0 1 108.711-108.711zm5.184 165.735c25.453 0 39.269 17.8 48.73 26.957-7.32 5.722-33.11 15.552-53.914 15.552s-46.594-9.83-53.914-15.552c9.461-9.159 23.276-26.957 48.73-26.957v-46.656c-35.209 9.9-66.844-15.108-63.245-55.987 31.738-6.487 57.807 9.812 63.245 33.177h10.551c5.439-23.365 31.507-39.664 63.246-33.177 3.6 40.879-28.037 65.889-63.246 55.987v46.656" fill-rule="evenodd"/><path d="m444.908 176.406c7.773-1.948 15-3 18.662-14.515.7-2.2-3.936-6.622-7.258-9.332s-5.684-4.22-8.294-8.294c-2.783 1.472-5.428 3.829-16.589 7.258-30.17 9.267-65.569 13.5-85.018 15.625-14.22 1.553-17.126 1.675-16.589-2.147s5.3-3.591 11.4-4.147c36.532-3.33 89.654-15.04 100.57-21.773 10.761-6.638 20.218-21.271 15.552-35.252s-14.228-16.25-33.178-10.368c-43.859 13.614-116.85 21.773-173.146 21.773s-129.283-8.159-173.142-21.773c-18.95-5.882-28.512-3.612-33.178 10.368s4.791 28.614 15.552 35.252c10.916 6.733 64.038 18.443 100.571 21.773 6.1.556 10.868.325 11.4 4.147s-4.109 3.12-16.589 2.147c-20.4-1.589-28.733-1.589-85.018-15.625-10.053-2.508-13.806-5.786-16.589-7.258-2.61 4.074-4.973 5.585-8.294 8.294s-8.609 5.178-7.258 9.332c3.737 11.488 10.889 12.567 18.663 14.515s99.621 21.773 192.846 21.773 187.15-19.825 194.924-21.773z" fill="none" stroke="#000" stroke-linecap="round" stroke-linejoin="round" stroke-width="8"/><path d="m167.549 100.486c64.566 7.215 105.868 6.106 145.83 1.952 74.667-7.762 98.691-14.348 127.99-22.238-15.217-13.846-21.381-14.3-37.185-20.283s-10.444-6.879-28.171-21.41c-23.373-19.159-45.2-19.654-55.215-20.283s-18.046 1.732-28.171-2.254-31.568-17.63-59.722-15.77c-57.042 3.763-80.52 29.885-91.273 37.185-9.557 6.488-9.346 2.651-33.805 10.142s-31.573 15.008-45.073 32.673c27.527 8.531 47.953 13.933 104.795 20.286zm-7.455-40.06a10.271 10.271 0 1 1 -10.288 10.274 10.279 10.279 0 0 1 10.288-10.274zm55.306-44.226a10.271 10.271 0 1 1 -10.287 10.271 10.279 10.279 0 0 1 10.287-10.271zm-20.557 33.923a10.287 10.287 0 1 1 -10.271 10.287 10.279 10.279 0 0 1 10.271-10.287zm41.148 4.73a10.287 10.287 0 1 1 -10.3 10.287 10.3 10.3 0 0 1 10.3-10.286z" fill-rule="evenodd"/></g></svg>