<svg height="500" viewBox="0 0 261.593 500" width="261.593" xmlns="http://www.w3.org/2000/svg"><g fill-rule="evenodd" transform="translate(-119.219)"><path d="m181.992 150.964h51.081a15.963 15.963 0 0 1 15.963 15.963s.027 15.021.075 32.267c.041 14.563 1.45 32.106 6.55 40.746 19.233 32.583 85.538 42.15 85.859 89.89.521 77.632.1 154.224.1 154.224a15.963 15.963 0 0 1 -15.963 15.963h-176.657a15.962 15.962 0 0 1 -15.962-15.963s-13.835-51.44-13.835-134.114c0-75.57 46.824-183.013 46.824-183.013a15.963 15.963 0 0 1 15.965-15.963zm48.42 286.016c-12.173 0-22.962-6.8-29.642-17.276-.07.092-.114.164-.451.651l-9.319 13.107a4.257 4.257 0 1 1 -6.939-4.933l12.006-16.887c.21-.3.3-.385.44-.611a47.021 47.021 0 0 1 -2.621-11.9c.023-.063.021-.046.018-.061h-18.853a4 4 0 0 1 -4-4v-.514a4 4 0 0 1 4-4h18.854a.182.182 0 0 1 -.016-.051 46.819 46.819 0 0 1 3.053-13.023c-.092-.138-.208-.236-.547-.622l-1.32-1.86-11.013-15.491a4.257 4.257 0 0 1 6.938-4.93l8.988 12.642c1.174 1.642 1.224 1.716 1.335 1.886a39.152 39.152 0 0 1 10.206-10.435.118.118 0 0 0 .064-.06 19.688 19.688 0 1 1 37.566-.016.187.187 0 0 1 .095.049c10.706 7.364.083 0 .121.027a39.137 39.137 0 0 1 10.206 10.435c.111-.17.162-.244 1.335-1.886l8.988-12.642a4.257 4.257 0 0 1 6.939 4.933l-11.012 15.488-1.32 1.856c-.339.386-.455.484-.546.622a46.853 46.853 0 0 1 3.052 13.023.147.147 0 0 1 -.016.051h18.854a4 4 0 0 1 4 4v.514a4 4 0 0 1 -4 4h-18.855a.083.083 0 0 0 .018.061 46.935 46.935 0 0 1 -2.621 11.9c.14.226.23.315.44.611l12.006 16.887a4.257 4.257 0 0 1 -6.939 4.933l-9.318-13.107c-.336-.487-.38-.559-.451-.651-6.679 10.474-17.469 17.276-29.642 17.276h-.082z"/><path d="m189.576 108.015h40.236a15 15 0 0 1 15 15v16.185a5 5 0 0 1 -5 5h-60.236a5 5 0 0 1 -5-5v-16.185a15 15 0 0 1 15-15z"/><path d="m137.3 16.877c69.9-18.121 167.286-22.186 221.346-9.577v35.118c-9.46.937-58.947 5.825-90.531 27.389-28.28 19.308-30.785 20.993-30.785 31.141h-51.081s-1.649-25.094-19.156-31.926-22.638-4.257-28.733-4.257-9.973-45.578-1.06-47.888zm230.924-9.577 5.609 3.169a6.977 6.977 0 0 1 6.977 6.977v14.826a6.977 6.977 0 0 1 -6.977 6.977l-5.609 3.169a5.321 5.321 0 0 1 -5.324-5.318v-24.479a5.321 5.321 0 0 1 5.324-5.321zm-86.2 62.787c3.9-4.88 21.372-11.4 26.605-11.706 2.089-.123 2.756 33.564 28.733 67.044 36.207 46.665 20.245 45.264-27.669-1.064-18.893-18.274-29.28-52.255-27.668-54.275z"/></g></svg>