<svg height="500" viewBox="0 0 363.563 500" width="363.563" xmlns="http://www.w3.org/2000/svg"><g fill-rule="evenodd" transform="translate(-64.375)"><path d="m86.984 430.1c22.2-17.22 54.232-13.174 70.3-26.95s1.894-41.958 90.223-42.182c85.955-.219 102.806 60.973 122.881 63.844 24.219 3.465 49.985 17.059 55.222 24.8s0 32.808 0 32.808a17.576 17.576 0 0 1 -17.572 17.58h-314.024a17.576 17.576 0 0 1 -17.576-17.58s-11.649-35.101 10.546-52.32z"/><path d="m210.821 364.482s21.109-8.571 16.4-72.648c-2.411-32.837-13.989-102.4-22.262-103.112s0-10.546 0-10.546a59.638 59.638 0 0 1 11.717 1.172c7.281 1.338 13.586-73.585 17.576-85.536s6.909-14.251 7.03-18.748 5.612-4.792 10.546-3.515 4.525-.428 5.858 11.717 2.141 20.918 10.546 19.92 13.957 2.5 9.374 8.2-25.7.958-25.778 14.061c-.093 15.4-13.511 61.176-3.515 108.971 3.31 15.829 5.781 17.515 10.545 16.4s8.563 1.889 8.2 7.03-14.491-.141-14.06 12.889 3.764 82.312 14.06 91.395c-19.51.959-46.299-.36-56.237 2.35z"/><path d="m231.912 82.094s-84.164 16.485-104.284-76.162c57.784-16.334 108.334.654 119.517 56.243-3.126 3.126 2.554 8.445-15.233-4.687-19.231-14.2-62.368-34.642-67.96-35.152 22.231 17.508 44.91 30.8 60.93 45.7 8.873 8.251 12.595 9.289 7.03 14.058z"/><path d="m296.656 115.808s75.089 41.438 122.582-40.615c-50.019-33.225-103.338-32.514-130.992 16.992 2.02 3.933-5.014 7.259 15.936.2 22.653-7.636 69.975-13.9 75.455-12.681-26.52 9.869-52.177 15.584-71.987 24.871-10.972 5.141-14.833 4.99-10.994 11.233z"/><path d="m279.033 261.975s82.23 24.365 111.015-65.966c-55.982-21.722-107.911-9.588-124.3 44.7 2.817 3.408-3.34 8.166 15.608-3.226 20.487-12.318 65.363-28.592 70.978-28.572-23.786 15.329-47.62 26.414-64.976 39.735-9.61 7.374-13.414 8.054-8.325 13.329z"/><path d="m192.162 192.991s-66.7 53.908-127.789-18.6c43.452-41.446 96.081-50.052 131.946-6.133-1.3 4.225 6.205 6.273-15.657 2.975-23.638-3.565-71.328-1.477-76.51.685 27.836 5.088 54.1 6.237 75.223 11.924 11.702 3.158 15.478 2.332 12.787 9.149z"/></g></svg>