<svg height="483.407" viewBox="0 0 500 483.407" width="500" xmlns="http://www.w3.org/2000/svg"><path d="m318.415 184.234c-118.201-111.913-117.537-218.26-260.088-158.994-96.127 39.96-69.048 254.38 49.153 366.293s344.725 137.314 378.891 38.979c51.14-147.189-49.755-134.365-167.956-246.278zm-75.161-50.916c-24.19 11.485-10.161 45.5 19.4 72.737 31.114 28.666 63.849 43.6 76.373 20.609 8.544-15.683-24.954-20.676-50.915-49.7-19.841-22.184-25.789-52.698-44.858-43.646zm-210.935-56.976s-35.573 203.081 161.232 351.558c-122.271-141.116-139.631-138.037-161.232-351.558zm395.2 215.786c-8.929 10.121 19.227 23.057 31.519 37.58 16.5 19.493 34.249 72.3 29.1 29.1-5.66-47.429-48.265-80.683-60.618-66.681z" fill-rule="evenodd" transform="translate(0 -8.281)"/></svg>