<svg height="500" viewBox="0 0 486.907 500" width="486.907" xmlns="http://www.w3.org/2000/svg"><g fill-rule="evenodd" transform="translate(-6.531)"><path d="m284.9 203.978c-36.28 6.073-90.437 79.335-99.054 100.192-10.046 24.321-30.731 44.73-36.346 64.39-.5 1.765-1.291 4.146-9.195 9.615-13.97 9.668-42.588 7.383-54.65 11.386-12.82 4.254-28.97 9.666-40.988 18.217-7.732 5.5-21.5 21.485-27.325 34.156-12.535 27.26-12.642 56.848-7.967 58.066 3.738.975 8.769-35.166 28.464-60.343 14.351-18.346 43.659-31.618 54.65-33.018a102.679 102.679 0 0 1 15.94-1.138c12.038.484 17.282 1.882 19.355 4.554 1.6 2.064-.02 18.852 1.139 30.741 1.529 15.7 5.707 27.251 6.831 28.463 2.46 2.655.3-15.912 2.277-31.879.831-6.707 6.206-19.7 7.97-29.6 1.441-8.092 6.791-13.734 7.867-12.2q1.077 1.54 2.38 3.087c25.166 29.86 96.127 49.36 179.89 5.693 52.644-27.444 74.3-67.589 50.1-105.885-2.133-3.375-7.253-6.091-6.214-9.547 2.58-8.581 2.2-42.047-6.31-55.35-5.616-8.782-12.493-15.633-21.632-20.494-1.22-.649 30.089-27.2 37.274-43.82 4.441-10.276 19.536-24.981 16.555-29.432-2.388-3.565-6.751 2.275-9.872-2.6-2.45-3.825-2.449-25.636-4.108-30.036-.34-.9-3.887-14.9-7.97-23.909-3.316-7.316-5.322-9.883-7.97-9.108-3.248.95-2.085 5.719 0 12.524 3.785 12.352 6.364 13.6 9.109 30.74.763 4.764-.674 16.777-2.355 27.776-1.4 9.187-6.442 18.246-6.754 18.905-7.932 16.786-35.53 43.99-37.572 43.264-17.607-6.249-36.349-6.288-53.519-3.41zm-95.634 116.132s29.612-47 42.126-61.482c10.318-11.941 39.5-61.4 99.053-39.849-7.476 11.316-6.93 17.019-12.524 36.433-35.237 2.074-51.389 9.381-64.9 17.079-12.984 7.401-40.866 27.698-63.755 47.819zm154.842-96.777s26.877.891 27.325 51.235c-9.565-8.993-24.348-16.7-36.433-18.217 1.227-19.402.787-20.814 9.108-33.018zm-165.089 171.921c-5.735 7.8.612 26.09 72.1 24.814 52.4-.935 98.963-29.188 94.131-36.2-1.415-2.053-40.921 18.032-52.374 20.494-71.648 15.4-55.191-5.023-77.421-6.831s-31.147-9.471-36.436-2.277z"/><path d="m404.451 134.526c-3.867 5.354 13.938-80.156 88.807-64.9 1.976 15.721-13.123 32.365-25.048 46.681-13.339 16.013-55.269 30.942-55.995 28.754-2.944-8.872 30.659-38.993 60.549-62.911-30.09 11.028-62.083 56.893-68.313 52.376z"/><path d="m376.966 66.722c3.866 5.354-13.938-80.156-88.807-64.9-1.976 15.72 13.123 32.364 25.048 46.68 13.339 16.013 55.269 30.942 56 28.755 2.943-8.873-30.659-38.993-60.549-62.911 30.085 11.027 62.078 56.892 68.308 52.376z"/></g></svg>