<svg height="310.375" viewBox="0 0 500 310.375" width="500" xmlns="http://www.w3.org/2000/svg"><g fill-rule="evenodd" transform="translate(0 -94.813)"><path d="m68.768 293.5a55.847 55.847 0 1 1 -55.846 55.846 55.846 55.846 0 0 1 55.846-55.846zm0 23.862a31.984 31.984 0 1 1 -31.984 31.984 31.984 31.984 0 0 1 31.984-31.988z"/><path d="m12.821 351.255c9.345-1.3 60.308-9.209 122.432-21.479 98.261-19.407 170.555-34.9 245.939-51.551 4.39-1.445 10.27-5.144 12.888-10.739 12.335-26.368 25.6-65.12 26.849-95.584 1.377-33.561 17.714-49.924 11.814-41.885 1.007-1.372-3.682-4.767 1.074-7.517 22.927-13.261 16.429-9.728 52.624-26.85 6.124-2.9 9.319 2.288 10.74 5.37 1.385 3.005 6.144 9.983-1.074 13.962-4.608 2.54-45.687 23.122-48.582 25.88-2.632 2.506-1.981-3.864-4.043-1.179-1.11 1.447-9.851 4.369-11.813 33.293-2.639 38.9-14.723 72.16-27.924 102.027-5.1 11.528-15.076 11.164-24.7 13.962.083 7.887 44.362 115.989 0 115.989-44.333 0-104.033-89.291-126.728-84.844-102.442 20.072-225.734 43.646-239.5 46.181-15.911 2.932-18.217-12.491.004-15.036zm262.048-36.515 93.431-20.405c.015-.008 29.376 85.892 14.941 95.486-23.194 15.416-71.707-50.447-108.372-75.081z"/><path d="m135.253 321.184c6.288-.484 233.408-48.48 242.717-51.551 14.572-4.805 40.053-91.491 31.145-91.287-9.481.217-337.791-.384-345.818 0-15.418.738 56.216 144.054 71.956 142.838z"/><path d="m63.3 171.9h343.67s-2.373-32.028-32.219-34.367c-20.278-1.589-21.787-3.943-30.071-5.37-2.22-6.319-8.791-21.536-41.885-24.7-24.4-2.334-28.581 3.394-33.293 11.814-5.9-8.656-31.871 1.994-36.515 15.035-5.783-16.765-21.866-26.831-36.515-16.109-2.292-17.05-26.1-27.552-31.145-11.814-8.427 4.547-25.668 6.542-24.7 24.7-6.827-5.457-9.912-6.338-22.553-7.517-13.414-1.252-17.72 6.7-19.332 22.553-7.946-6.315-14.723-6.741-22.553 1.074s-12.889 24.701-12.889 24.701z"/></g></svg>