<svg height="348.5" viewBox="0 0 500 348.5" width="500" xmlns="http://www.w3.org/2000/svg"><g fill-rule="evenodd" transform="translate(0 -75.75)"><path d="m74.25 377.762c47.456 0 157.37-.3 201.288-.3-.353-10.953-.782-24.264-1.247-38.719-.3-9.157 2.8-15.742 114.372-109.5 26.69-22.429 65.428-53.69 77.5-66.874-6.651-6.573-9.52-10.949-15.369-19.414-22.829 16.54-88.516 61.882-131.158 89.739-28.026 18.306-41.336.166-47.345-20.332-47.126 0-157.673-.148-193.172-.148-1.167 36.247-3.227 100.232-4.666 144.941-20.428 0-30.607-47.284-48.524-117.455-38.177-149.525 61.005-148.415 108.723-148.415 110.461 0 102.217 55.351 102.217 75.826h-140.811c-8.86 0-16.043 7.727-16.043 17.258l-.615 18.975c17.835 0 171.708.15 190.731.15-.305-13.386-.815-19.126-.815-19.126 0-9.531-5.208-17.611-16.043-17.258 0-22.258 11.764-91.357-118.626-91.357-116.241 0-153.581 48.884-125.981 169.125 26.834 116.89 39.721 132.884 65.584 132.884zm-.75 9.014-.651 20.216a17.257 17.257 0 0 0 17.258 17.257h169.124a17.257 17.257 0 0 0 17.257-17.257s-.252-7.838-.662-20.572c-35.139 0-145.05.356-202.326.356z"/><path d="m486.177 131.029c10.164 12.618 16 24.786 13.027 27.178s-13.615-5.9-23.779-18.518-16-24.787-13.028-27.178 13.616 5.899 23.78 18.518zm-14.784 11.908c-20.723-25.728-14.69-26.491-14.69-26.491s-12.6 9.123 6.626 32.986 30.8 13.512 30.8 13.512-2.013 5.721-22.736-20.007z"/></g></svg>